<svg width="95" height="111" viewBox="0 0 95 111" fill="none" xmlns="http://www.w3.org/2000/svg"><path d="M45.731.44A1.397 1.397 0 0 0 44.714 0h-.007c-.07 0-.14.007-.21.018l-.103-.01a1.703 1.703 0 0 0-.14-.006l-33.39.16A10.917 10.917 0 0 0 0 11.133l.337 70.095a10.93 10.93 0 0 0 10.917 10.864h.053l33.86-.192a1.402 1.402 0 1 0-.008-2.804h-.008l-33.858.192h-.04a8.122 8.122 0 0 1-8.111-8.075l-.337-70.094a8.112 8.112 0 0 1 8.073-8.15l32.44-.156.064 13.17a10.93 10.93 0 0 0 10.916 10.864h.053l13.171-.063.181 32.301a1.402 1.402 0 0 0 1.403 1.395h.008a1.402 1.402 0 0 0 1.394-1.41l-.187-33.35-.002-.402a1.402 1.402 0 0 0-.416-.991L45.75.456c-.006-.007-.013-.011-.019-.017zm8.606 23.602h-.04a8.122 8.122 0 0 1-8.11-8.073l-.055-11.193L65.57 23.99l-11.233.053z" fill="#fff"/><path d="M33.884 51.778a1.402 1.402 0 0 0 0 2.805h4.756a1.402 1.402 0 0 0 0-2.805h-4.756zM56.438 41.288a1.402 1.402 0 0 0-1.402-1.402H15.55a1.402 1.402 0 0 0 0 2.804h39.486a1.402 1.402 0 0 0 1.402-1.402zM15.55 51.778a1.402 1.402 0 0 0 0 2.805h12.308a1.402 1.402 0 0 0 0-2.805H15.55zM69.056 58.321A25.945 25.945 0 1 0 95 84.265a25.973 25.973 0 0 0-25.944-25.944zm0 49.083A23.143 23.143 0 0 1 47.678 93.12a23.139 23.139 0 1 1 44.517-8.855 23.147 23.147 0 0 1-23.139 23.139z" fill="#fff"/><path d="M7.816 81.212L7.48 11.118a8.112 8.112 0 0 1 8.074-8.15l27.765-.134V2.81l-32.44.155a8.112 8.112 0 0 0-8.073 8.152l.337 70.095a8.122 8.122 0 0 0 8.111 8.073h.04l4.056-.023a8.122 8.122 0 0 1-7.533-8.052zM58.972 26.846h.053l8.497-.04v-.024l-9.175.044c.207.013.415.02.625.02zM51.352 90.168a23.162 23.162 0 0 1 20.042-28.925 23.14 23.14 0 1 0 .026 46.041 23.141 23.141 0 0 1-20.068-17.116z" fill="#fff" fill-opacity=".4"/><path d="M76.075 85.007l-5.43 5.053V74.037a1.636 1.636 0 1 0-3.272 0V90.06l-5.43-5.053a1.637 1.637 0 1 0-2.229 2.395l9.295 8.65 9.296-8.65a1.636 1.636 0 0 0-2.23-2.395z" fill="#fff"/></svg>