<svg width="134" height="156" viewBox="0 0 134 156" fill="none" xmlns="http://www.w3.org/2000/svg"><path d="M64.505.62A1.971 1.971 0 0 0 63.07 0h-.01c-.099.001-.198.01-.296.026l-.145-.014a2.399 2.399 0 0 0-.197-.009l-47.1.227A15.398 15.398 0 0 0 0 15.702l.475 98.871a15.414 15.414 0 0 0 15.4 15.324h.074l47.76-.27a1.98 1.98 0 0 0 1.973-1.984 1.977 1.977 0 0 0-1.984-1.973h-.011l-47.758.271h-.056a11.456 11.456 0 0 1-11.442-11.39l-.475-98.868A11.442 11.442 0 0 1 15.344 4.186l45.757-.22.09 18.577a15.416 15.416 0 0 0 15.397 15.325h.075l18.579-.09.255 45.562a1.978 1.978 0 0 0 1.978 1.967h.012a1.978 1.978 0 0 0 1.967-1.989l-.264-47.042-.003-.566a1.98 1.98 0 0 0-.587-1.398L64.532.642c-.008-.008-.018-.014-.027-.022zm12.14 33.292h-.056a11.456 11.456 0 0 1-11.442-11.388L65.07 6.737l27.417 27.1-15.844.075z" fill="#2D2D2D"/><path d="M47.794 73.035a1.978 1.978 0 1 0 0 3.956h6.708a1.978 1.978 0 1 0 0-3.956h-6.708zM79.607 58.238a1.978 1.978 0 0 0-1.978-1.978H21.933a1.978 1.978 0 1 0 0 3.956h55.696a1.978 1.978 0 0 0 1.978-1.978zM21.933 73.035a1.978 1.978 0 1 0 0 3.956h17.36a1.978 1.978 0 1 0 0-3.956h-17.36z" fill="#2D2D2D"/><path d="M97.406 82.263A36.595 36.595 0 1 0 134 118.858a36.637 36.637 0 0 0-36.594-36.595zm0 69.233a32.633 32.633 0 0 1-30.154-20.148 32.639 32.639 0 1 1 62.792-12.49 32.646 32.646 0 0 1-9.563 23.075 32.646 32.646 0 0 1-23.075 9.563z" fill="#E31837"/><path d="M11.025 114.551l-.475-98.868A11.442 11.442 0 0 1 21.937 4.186l39.164-.188v-.033l-45.757.22A11.442 11.442 0 0 0 3.956 15.683l.475 98.871a11.456 11.456 0 0 0 11.442 11.387h.056l5.72-.033a11.455 11.455 0 0 1-10.624-11.357zM83.182 37.868h.075l11.984-.058v-.033l-12.941.062c.292.018.586.029.882.029zM72.432 127.184a32.672 32.672 0 0 1 28.27-40.8 32.638 32.638 0 1 0 .037 64.943 32.649 32.649 0 0 1-28.307-24.143z" fill="#D6D4D2"/><path d="M107.306 119.904l-7.659 7.127V104.43a2.307 2.307 0 1 0-4.615 0v22.601l-7.659-7.127a2.31 2.31 0 0 0-3.831 1.169 2.306 2.306 0 0 0 .686 2.209l13.112 12.202 13.111-12.202a2.307 2.307 0 0 0-3.145-3.378z" fill="#E31837"/></svg>